<svg xmlns="http://www.w3.org/2000/svg" xmlns:xlink="http://www.w3.org/1999/xlink" width="15" height="13" viewBox="0 0 15 13"><defs><path id="oyyia" d="M289.551 24.375h-.6l.126.371c.048.083.082.468.082.571v4.684c0 .3-.236.545-.527.545h-1.935a.537.537 0 0 1-.528-.545v-.998h-7.476v.998c0 .3-.236.545-.528.545h-1.935a.537.537 0 0 1-.528-.545v-4.683c0-.104.035-.488.082-.572l.125-.371h-.598c-.276 0-.422-.23-.328-.514l.171-.514c.094-.284.394-.514.67-.514h.605c.47-1.382 1.046-3.049 1.182-3.32.292-.573 1.026-.83 1.554-1.013 0 0 .754-.295 3.266-.295s3.266.296 3.266.296c.45.129 1.27.396 1.527.987.165.38.733 2.001 1.197 3.345h.618c.275 0 .575.23.67.514l.17.514c.094.284-.053.514-.328.514zm-10.088 1.875c0-.354-.517-.533-.979-.746-.424-.195-1.067-.48-1.393-.48-.332 0-.641.02-.641.57v.568c0 .468.715.568 1.432.568h.8c.603 0 .781-.151.781-.48zm2.967-2.647c3.248 0 4.853-.564 4.853-.564-.372-1.554-.836-2.642-.954-3.003-.009-.009-.098-.689-3.898-.689-3.8 0-3.873.596-3.948.79-.095.265-.523 1.217-.916 2.903 0 0 1.616.563 4.863.563zm3.75 3.126h.8c.717 0 1.432-.098 1.432-.568v-.568c0-.549-.31-.569-.642-.569-.325 0-.969.285-1.393.48-.462.213-.98.39-.98.746 0 .329.18.48.783.48z"/></defs><g><g opacity=".4" transform="translate(-275 -18)"><use fill="#fff" xlink:href="#oyyia"/></g></g></svg>