<svg xmlns="http://www.w3.org/2000/svg" xmlns:xlink="http://www.w3.org/1999/xlink" width="17" height="18" viewBox="0 0 17 18"><defs><path id="a51ia" d="M538.308 27.623l-.48.273c-.398.222-.61.681-.529 1.137l.1.549a1.07 1.07 0 0 1-.981 1.27l-.55.031a1.07 1.07 0 0 0-.963.793l-.145.538c-.17.628-.84.961-1.429.714l-.507-.212a1.05 1.05 0 0 0-1.203.29l-.36.424a1.05 1.05 0 0 1-1.59.01l-.367-.415a1.05 1.05 0 0 0-1.21-.27l-.505.223a1.054 1.054 0 0 1-1.439-.689l-.151-.538a1.063 1.063 0 0 0-.974-.778l-.55-.025c-.639-.025-1.108-.617-1.002-1.255l.096-.549a1.087 1.087 0 0 0-.547-1.13l-.483-.265a1.09 1.09 0 0 1-.367-1.575l.317-.455c.261-.38.258-.886-.01-1.259l-.325-.452a1.087 1.087 0 0 1 .342-1.578l.48-.272c.399-.223.61-.682.529-1.137l-.099-.549a1.07 1.07 0 0 1 .98-1.27l.55-.032a1.05 1.05 0 0 0 .957-.796l.144-.538c.17-.628.84-.961 1.429-.714l.508.212c.42.176.903.057 1.203-.29l.36-.424a1.05 1.05 0 0 1 1.59-.01l.367.415c.307.348.79.456 1.21.273l.504-.222a1.054 1.054 0 0 1 1.439.688l.152.538c.127.445.518.76.973.778l.55.026c.639.025 1.108.616 1.002 1.255l-.092.552c-.074.456.145.911.547 1.13l.483.265a1.09 1.09 0 0 1 .367 1.575l-.317.455c-.261.38-.258.886.01 1.259l.325.452c.374.524.215 1.266-.339 1.574zm-2.338-2.593c0-3.127-2.494-5.663-5.57-5.663-3.075 0-5.569 2.536-5.569 5.663 0 3.128 2.494 5.663 5.57 5.663 3.075 0 5.569-2.535 5.569-5.663zm-4.36-1.79a.748.748 0 0 1 1.069.004.779.779 0 0 1-.004 1.087l-1.918 1.94-.55.556a.727.727 0 0 1-1.041-.003l-.55-.56-.494-.506a.779.779 0 0 1 .003-1.086.748.748 0 0 1 1.07.003l.493.506z"/></defs><g><g transform="translate(-522 -16)"><use fill="#7c7f82" xlink:href="#a51ia"/></g></g></svg>