<svg xmlns="http://www.w3.org/2000/svg" xmlns:xlink="http://www.w3.org/1999/xlink" width="15" height="16" viewBox="0 0 15 16"><defs><path id="ktlla" d="M398.741 25.83c-.316 3.16-2.89 5.7-6.07 5.991-3.758.344-6.962-2.405-7.334-5.979h-.662a.52.52 0 0 1-.453-.78l1.48-2.552a.524.524 0 0 1 .907 0l1.481 2.552a.52.52 0 0 1-.453.78h-.577a5.03 5.03 0 0 0 5.734 4.252c2.118-.31 3.836-1.972 4.196-4.071.539-3.142-1.892-5.877-4.952-5.877a5.02 5.02 0 0 0-2.773.829c-.382.252-.911.202-1.191-.159a.848.848 0 0 1 .197-1.226 6.714 6.714 0 0 1 2.932-1.093v-.968h-.687a.426.426 0 0 1-.427-.425v-.429c0-.235.191-.425.427-.425h3.183c.236 0 .427.19.427.425v.429a.426.426 0 0 1-.427.425h-.756v.978c3.506.47 6.166 3.633 5.798 7.322zm.245-5.837l-.34.367a.43.43 0 0 1-.605.024l-1.289-1.186a.424.424 0 0 1-.024-.6l.341-.368a.429.429 0 0 1 .604-.023l1.29 1.185c.173.16.183.429.023.601zm-2.829 5.187h-4.14v-4.16c2.208 0 4.14 1.627 4.14 4.16z"/></defs><g><g transform="translate(-384 -16)"><use fill="#7c7f82" xlink:href="#ktlla"/></g></g></svg>