<svg xmlns="http://www.w3.org/2000/svg" xmlns:xlink="http://www.w3.org/1999/xlink" width="12" height="10" viewBox="0 0 12 10"><defs><path id="2wala" d="M174.895 24.44h6.84a.915.915 0 0 1 0 1.83h-6.84a.915.915 0 0 1 0-1.83zm.07 3.637h6.678c.553 0 1.001.407 1.001.91 0 .502-.448.91-1.001.91h-6.678c-.553 0-1.001-.408-1.001-.91 0-.503.448-.91 1.001-.91zm0-7.279h6.678c.553 0 1.001.408 1.001.91 0 .503-.448.91-1.001.91h-6.678c-.553 0-1.001-.407-1.001-.91 0-.502.448-.91 1.001-.91z"/><path id="2walb" d="M171.865 24.44h.2a.915.915 0 0 1 0 1.83h-.2a.915.915 0 0 1 0-1.83zm.095 3.637c.554 0 1.002.407 1.002.91 0 .502-.448.91-1.002.91-.553 0-1.001-.408-1.001-.91 0-.503.448-.91 1.001-.91zm0-7.279c.554 0 1.002.408 1.002.91 0 .503-.448.91-1.002.91-.553 0-1.001-.407-1.001-.91 0-.502.448-.91 1.001-.91z"/></defs><g><g transform="translate(-171 -20)"><use fill="#818589" xlink:href="#2wala"/></g><g transform="translate(-171 -20)"><use fill="#818589" xlink:href="#2walb"/></g></g></svg>